<?xml version="1.0" encoding="UTF-8"?>
<!DOCTYPE svg PUBLIC "-//W3C//DTD SVG 1.1//EN" "http://www.w3.org/Graphics/SVG/1.1/DTD/svg11.dtd">
<svg xmlns="http://www.w3.org/2000/svg" version="1.1" width="1000px" height="1000px" style="shape-rendering:geometricPrecision; text-rendering:geometricPrecision; image-rendering:optimizeQuality; fill-rule:evenodd; clip-rule:evenodd" xmlns:xlink="http://www.w3.org/1999/xlink">
<g><path style="opacity:0.944" fill="#fefffe" d="M 486.5,165.5 C 606.5,164.585 702,211.918 773,307.5C 830.255,393.127 846.588,486.127 822,586.5C 786.602,704.231 710.435,782.065 593.5,820C 485.578,848.517 386.578,830.184 296.5,765C 201.469,688.056 158.469,588.223 167.5,465.5C 182.461,349.465 240.461,262.631 341.5,205C 387.037,181.092 435.37,167.925 486.5,165.5 Z M 485.5,186.5 C 600.82,185.741 691.986,231.741 759,324.5C 812.831,408.131 825.831,497.798 798,593.5C 763.167,695 695,763.167 593.5,798C 485.969,828.362 388.302,809.362 300.5,741C 215.854,667.15 178.687,573.983 189,461.5C 206.686,346.879 267.519,264.379 371.5,214C 408.006,198.137 446.006,188.97 485.5,186.5 Z"/></g>
<g><path style="opacity:0.985" fill="#fefffe" d="M 478.5,221.5 C 558.607,217.086 628.274,241.419 687.5,294.5C 660.274,295.541 643.774,309.541 638,336.5C 636.644,349.052 638.644,361.052 644,372.5C 650.535,385.684 657.868,398.351 666,410.5C 689.589,451.138 693.922,493.805 679,538.5C 665.92,582.072 652.253,625.405 638,668.5C 603.994,568.65 570.494,468.65 537.5,368.5C 548.202,368.179 558.869,367.345 569.5,366C 578.255,363.658 581.089,358.158 578,349.5C 576.457,347.622 574.624,346.122 572.5,345C 546.522,346.06 520.522,346.893 494.5,347.5C 470.799,347.332 447.132,346.332 423.5,344.5C 411.872,343.954 407.372,349.287 410,360.5C 411.5,362 413,363.5 414.5,365C 425.802,366.697 437.135,368.197 448.5,369.5C 463.33,408.822 477.663,448.322 491.5,488C 471.662,549.014 451.329,609.847 430.5,670.5C 396.503,570.176 362.503,469.843 328.5,369.5C 339.479,368.168 350.479,367.002 361.5,366C 370.37,363.021 372.87,357.188 369,348.5C 365.601,345.05 361.434,343.717 356.5,344.5C 326.545,347.056 296.545,347.889 266.5,347C 317.607,272.596 388.273,230.763 478.5,221.5 Z"/></g>
<g><path style="opacity:0.973" fill="#fefffe" d="M 742.5,365.5 C 760.931,396.963 772.098,430.963 776,467.5C 784.662,571.261 748.829,655.761 668.5,721C 659.095,728.121 649.262,734.621 639,740.5C 671.437,644.858 704.103,549.192 737,453.5C 744.531,424.501 746.364,395.168 742.5,365.5 Z"/></g>
<g><path style="opacity:0.978" fill="#fefffe" d="M 244.5,386.5 C 246.335,387.122 247.502,388.456 248,390.5C 291.806,510.087 335.306,629.754 378.5,749.5C 311.336,716.831 264.503,665.498 238,595.5C 214.146,524.991 216.313,455.324 244.5,386.5 Z"/></g>
<g><path style="opacity:0.983" fill="#fefffe" d="M 503.5,523.5 C 504.497,523.47 505.164,523.97 505.5,525C 534.008,604.026 563.008,682.859 592.5,761.5C 552.001,775.937 510.335,780.77 467.5,776C 451.373,774.21 435.706,770.71 420.5,765.5C 448.569,684.959 476.236,604.293 503.5,523.5 Z"/></g>
</svg>
